<mxfile host="app.diagrams.net" agent="Mozilla/5.0 (Windows NT 10.0; Win64; x64) AppleWebKit/537.36 (KHTML, like Gecko) Chrome/137.0.0.0 Safari/537.36 Edg/137.0.0.0" version="27.1.5">
  <diagram name="第 1 页" id="Yli3DblyFCL1oLjhyPn9">
    <mxGraphModel dx="946" dy="554" grid="1" gridSize="10" guides="1" tooltips="1" connect="1" arrows="1" fold="1" page="1" pageScale="1" pageWidth="827" pageHeight="1169" math="0" shadow="0">
      <root>
        <mxCell id="0" />
        <mxCell id="1" parent="0" />
        <mxCell id="iHhrdHwxB2HdCCmmaMXh-3" value="" style="edgeStyle=orthogonalEdgeStyle;rounded=0;orthogonalLoop=1;jettySize=auto;html=1;" edge="1" parent="1" source="iHhrdHwxB2HdCCmmaMXh-1" target="iHhrdHwxB2HdCCmmaMXh-2">
          <mxGeometry relative="1" as="geometry" />
        </mxCell>
        <mxCell id="iHhrdHwxB2HdCCmmaMXh-1" value="ADC双通道采样" style="rounded=0;whiteSpace=wrap;html=1;" vertex="1" parent="1">
          <mxGeometry x="20" y="330" width="120" height="60" as="geometry" />
        </mxCell>
        <mxCell id="iHhrdHwxB2HdCCmmaMXh-5" style="edgeStyle=orthogonalEdgeStyle;rounded=0;orthogonalLoop=1;jettySize=auto;html=1;" edge="1" parent="1" source="iHhrdHwxB2HdCCmmaMXh-2" target="iHhrdHwxB2HdCCmmaMXh-4">
          <mxGeometry relative="1" as="geometry" />
        </mxCell>
        <mxCell id="iHhrdHwxB2HdCCmmaMXh-2" value="DMA循环模式传输" style="whiteSpace=wrap;html=1;rounded=0;" vertex="1" parent="1">
          <mxGeometry x="20" y="420" width="120" height="60" as="geometry" />
        </mxCell>
        <mxCell id="iHhrdHwxB2HdCCmmaMXh-4" value="数据存入Buffer" style="rounded=0;whiteSpace=wrap;html=1;" vertex="1" parent="1">
          <mxGeometry x="20" y="510" width="120" height="60" as="geometry" />
        </mxCell>
        <mxCell id="iHhrdHwxB2HdCCmmaMXh-8" value="" style="edgeStyle=orthogonalEdgeStyle;rounded=0;orthogonalLoop=1;jettySize=auto;html=1;" edge="1" parent="1" source="iHhrdHwxB2HdCCmmaMXh-6" target="iHhrdHwxB2HdCCmmaMXh-7">
          <mxGeometry relative="1" as="geometry" />
        </mxCell>
        <mxCell id="iHhrdHwxB2HdCCmmaMXh-6" value="TIM2按频率触发回调" style="rounded=0;whiteSpace=wrap;html=1;" vertex="1" parent="1">
          <mxGeometry x="184" y="330" width="120" height="60" as="geometry" />
        </mxCell>
        <mxCell id="iHhrdHwxB2HdCCmmaMXh-10" value="" style="edgeStyle=orthogonalEdgeStyle;rounded=0;orthogonalLoop=1;jettySize=auto;html=1;" edge="1" parent="1" source="iHhrdHwxB2HdCCmmaMXh-7" target="iHhrdHwxB2HdCCmmaMXh-9">
          <mxGeometry relative="1" as="geometry" />
        </mxCell>
        <mxCell id="iHhrdHwxB2HdCCmmaMXh-7" value="从Buffer读取数据" style="whiteSpace=wrap;html=1;rounded=0;" vertex="1" parent="1">
          <mxGeometry x="184" y="420" width="120" height="60" as="geometry" />
        </mxCell>
        <mxCell id="iHhrdHwxB2HdCCmmaMXh-12" value="" style="edgeStyle=orthogonalEdgeStyle;rounded=0;orthogonalLoop=1;jettySize=auto;html=1;" edge="1" parent="1" source="iHhrdHwxB2HdCCmmaMXh-9" target="iHhrdHwxB2HdCCmmaMXh-11">
          <mxGeometry relative="1" as="geometry">
            <Array as="points">
              <mxPoint x="320" y="540" />
              <mxPoint x="320" y="370" />
            </Array>
          </mxGeometry>
        </mxCell>
        <mxCell id="iHhrdHwxB2HdCCmmaMXh-9" value="计算adc电压" style="whiteSpace=wrap;html=1;rounded=0;" vertex="1" parent="1">
          <mxGeometry x="184" y="510" width="120" height="60" as="geometry" />
        </mxCell>
        <mxCell id="iHhrdHwxB2HdCCmmaMXh-16" value="" style="edgeStyle=orthogonalEdgeStyle;rounded=0;orthogonalLoop=1;jettySize=auto;html=1;" edge="1" parent="1" source="iHhrdHwxB2HdCCmmaMXh-11" target="iHhrdHwxB2HdCCmmaMXh-15">
          <mxGeometry relative="1" as="geometry" />
        </mxCell>
        <mxCell id="iHhrdHwxB2HdCCmmaMXh-11" value="IIR_lpf滤波" style="whiteSpace=wrap;html=1;rounded=0;" vertex="1" parent="1">
          <mxGeometry x="340" y="330" width="120" height="60" as="geometry" />
        </mxCell>
        <mxCell id="iHhrdHwxB2HdCCmmaMXh-26" style="edgeStyle=orthogonalEdgeStyle;rounded=0;orthogonalLoop=1;jettySize=auto;html=1;entryX=0;entryY=0.5;entryDx=0;entryDy=0;exitX=0.5;exitY=1;exitDx=0;exitDy=0;" edge="1" parent="1" source="iHhrdHwxB2HdCCmmaMXh-15" target="iHhrdHwxB2HdCCmmaMXh-21">
          <mxGeometry relative="1" as="geometry">
            <Array as="points">
              <mxPoint x="400" y="550" />
              <mxPoint x="485" y="550" />
              <mxPoint x="485" y="360" />
            </Array>
          </mxGeometry>
        </mxCell>
        <mxCell id="iHhrdHwxB2HdCCmmaMXh-15" value="PI控制器" style="whiteSpace=wrap;html=1;rounded=0;" vertex="1" parent="1">
          <mxGeometry x="340" y="420" width="120" height="60" as="geometry" />
        </mxCell>
        <mxCell id="iHhrdHwxB2HdCCmmaMXh-17" value="" style="endArrow=none;dashed=1;html=1;dashPattern=1 3;strokeWidth=2;rounded=0;exitX=1;exitY=0.5;exitDx=0;exitDy=0;entryX=0;entryY=0.5;entryDx=0;entryDy=0;" edge="1" parent="1" source="iHhrdHwxB2HdCCmmaMXh-4" target="iHhrdHwxB2HdCCmmaMXh-7">
          <mxGeometry width="50" height="50" relative="1" as="geometry">
            <mxPoint x="220" y="580" as="sourcePoint" />
            <mxPoint x="270" y="530" as="targetPoint" />
          </mxGeometry>
        </mxCell>
        <mxCell id="iHhrdHwxB2HdCCmmaMXh-18" value="DMA&amp;nbsp;" style="swimlane;whiteSpace=wrap;html=1;" vertex="1" parent="1">
          <mxGeometry y="280" width="160" height="310" as="geometry" />
        </mxCell>
        <mxCell id="iHhrdHwxB2HdCCmmaMXh-19" value="TIM2回调" style="swimlane;whiteSpace=wrap;html=1;" vertex="1" parent="1">
          <mxGeometry x="170" y="280" width="310" height="310" as="geometry" />
        </mxCell>
        <mxCell id="iHhrdHwxB2HdCCmmaMXh-25" value="TIM1" style="swimlane;whiteSpace=wrap;html=1;" vertex="1" parent="1">
          <mxGeometry x="490" y="280" width="160" height="310" as="geometry" />
        </mxCell>
        <mxCell id="iHhrdHwxB2HdCCmmaMXh-23" value="产生特定频率和占空比的PWM" style="whiteSpace=wrap;html=1;rounded=0;" vertex="1" parent="iHhrdHwxB2HdCCmmaMXh-25">
          <mxGeometry x="20" y="230" width="120" height="60" as="geometry" />
        </mxCell>
        <mxCell id="iHhrdHwxB2HdCCmmaMXh-20" value="TIM1" style="rounded=0;whiteSpace=wrap;html=1;" vertex="1" parent="iHhrdHwxB2HdCCmmaMXh-25">
          <mxGeometry x="20" y="140" width="120" height="60" as="geometry" />
        </mxCell>
        <mxCell id="iHhrdHwxB2HdCCmmaMXh-24" value="" style="edgeStyle=orthogonalEdgeStyle;rounded=0;orthogonalLoop=1;jettySize=auto;html=1;" edge="1" parent="iHhrdHwxB2HdCCmmaMXh-25" source="iHhrdHwxB2HdCCmmaMXh-20" target="iHhrdHwxB2HdCCmmaMXh-23">
          <mxGeometry relative="1" as="geometry" />
        </mxCell>
        <mxCell id="iHhrdHwxB2HdCCmmaMXh-21" value="PWM占空比限制" style="rounded=0;whiteSpace=wrap;html=1;" vertex="1" parent="iHhrdHwxB2HdCCmmaMXh-25">
          <mxGeometry x="20" y="50" width="120" height="60" as="geometry" />
        </mxCell>
        <mxCell id="iHhrdHwxB2HdCCmmaMXh-22" style="edgeStyle=orthogonalEdgeStyle;rounded=0;orthogonalLoop=1;jettySize=auto;html=1;" edge="1" parent="iHhrdHwxB2HdCCmmaMXh-25" source="iHhrdHwxB2HdCCmmaMXh-21" target="iHhrdHwxB2HdCCmmaMXh-20">
          <mxGeometry relative="1" as="geometry" />
        </mxCell>
      </root>
    </mxGraphModel>
  </diagram>
</mxfile>
